# xmcd
#
# Track frame offsets:
#	180
#	17496
#	35993
#	53312
#	68640
#	82125
#	96295
#	112393
#	126048
#	142634
#	160039
#	177638
#	190600
#	205744
#	224349
#
# Disc length: 3235 seconds
#
# Revision: 1
# Processed by: cddbd v1.5.1PL2 Copyright (c) Steve Scherf et al.
# Submitted via: audiograbber 1.83.01
#
DISCID=cf0ca10f
DTITLE=Sound Choice - SC8160
DYEAR=1900
DGENRE=Karaoke Country
TTITLE0=Berry, John - Standing On The Edge Of Goodbye
TTITLE1=Herndon, Ty - What Mattered Most
TTITLE2=Chestnutt, Mark - Gonna Get A Life
TTITLE3=Carter, Carlene - Hurricane
TTITLE4=Tillis, Pam - I Was Blown Away
TTITLE5=Brooks and Dunn - Little Miss Honky Tonk
TTITLE6=Stone, Doug - Faith In Me, Faith In You
TTITLE7=Tippin, Aaron - She Feels Like A Brand New Man Tonight
TTITLE8=Gregory, Clinton - You Didn'T Miss A Thing
TTITLE9=Mattea, Kathy - Clown In Your Rodeo
TTITLE10=Murphy, David Lee - Party Crowd
TTITLE11=Foster, Rodney - Willin' To Talk
TTITLE12=Spartz, Doug - Colors And Numbers
TTITLE13=Brown, Sawyer - I Don'T Believe In Goodbye
TTITLE14=Mcbride, Martina - Where I Used To Have A Heart
EXTD=
EXTT0=
EXTT1=
EXTT2=
EXTT3=
EXTT4=
EXTT5=
EXTT6=
EXTT7=
EXTT8=
EXTT9=
EXTT10=
EXTT11=
EXTT12=
EXTT13=
EXTT14=
PLAYORDER=
